<?xml version="1.0" encoding="iso-8859-1"?>
<!-- Generator: Adobe Illustrator 19.0.0, SVG Export Plug-In . SVG Version: 6.00 Build 0)  -->
<svg version="1.1" id="Capa_1" xmlns="http://www.w3.org/2000/svg" xmlns:xlink="http://www.w3.org/1999/xlink" x="0px" y="0px"
	 viewBox="0 0 452.986 452.986" style="enable-background:new 0 0 452.986 452.986;" xml:space="preserve">
<g>
	<g>
		<g>
			<path style="fill:#010002;" d="M0,0.302v135.831h452.986V0.302H0z M303.544,88.677H50.346V47.779h253.198
				C303.544,47.779,303.544,88.677,303.544,88.677z M424.923,95.537l-15.38,15.445l-27.352-27.416l-27.352,27.416l-15.38-15.445
				l27.373-27.395l-27.373-27.287l15.38-15.337l27.352,27.309l27.352-27.309l15.38,15.337l-27.352,27.287L424.923,95.537z"/>
			<path style="fill:#010002;" d="M0,292.263h452.986v-135.81H0V292.263z M339.481,197.028l15.38-15.38l27.352,27.395l27.352-27.395
				l15.38,15.38l-27.352,27.33l27.352,27.352l-15.38,15.423l-27.352-27.352l-27.352,27.352l-15.38-15.423l27.373-27.352
				L339.481,197.028z M50.346,203.909h253.198v40.898H50.346V203.909z"/>
			<path style="fill:#010002;" d="M0,452.684h452.986V316.832H0V452.684z M339.481,357.428l15.38-15.358l27.352,27.352
				l27.352-27.352l15.38,15.358l-27.352,27.33l27.352,27.395l-15.38,15.358l-27.352-27.352l-27.352,27.352l-15.38-15.358
				l27.373-27.395L339.481,357.428z M50.346,364.309h253.198v40.898H50.346V364.309z"/>
		</g>
	</g>
	<g>
	</g>
	<g>
	</g>
	<g>
	</g>
	<g>
	</g>
	<g>
	</g>
	<g>
	</g>
	<g>
	</g>
	<g>
	</g>
	<g>
	</g>
	<g>
	</g>
	<g>
	</g>
	<g>
	</g>
	<g>
	</g>
	<g>
	</g>
	<g>
	</g>
</g>
<g>
</g>
<g>
</g>
<g>
</g>
<g>
</g>
<g>
</g>
<g>
</g>
<g>
</g>
<g>
</g>
<g>
</g>
<g>
</g>
<g>
</g>
<g>
</g>
<g>
</g>
<g>
</g>
<g>
</g>
</svg>
